# xmcd
#
# Track frame offsets:
#	150
#	20499
#	36259
#	57902
#	81615
#	100748
#	125816
#	130594
#	169977
#	185037
#	208027
#	230992
#	258076
#	279663
#	297796
#	314063
#	341377
#
# Disc length: 4763 seconds
#
# Revision: 0
# Processed by: cddbd v1.5.1PL0 Copyright (c) Steve Scherf et al.
# Submitted via: audiograbber 1.83.01
#
DISCID=0b129911
DTITLE=Arne Kopfermann - Vergiss es nie
DYEAR=1900
DGENRE=
TTITLE0=Ich laufe zu Deinem Altar
TTITLE1=Vergiss es nie
TTITLE2=Hier bin ich-sende mich
TTITLE3=An einem Kreuz
TTITLE4=Und seh ich Dich auf meinem Radar
TTITLE5=Du hast mich in Deine Hand gezeichnet
TTITLE6=Ewiger Gott Intro
TTITLE7=Ewiger Gott-Du bleibst-wie Du bist MEDLEY
TTITLE8=Wie der Regen f‰llt
TTITLE9=In der Nacht vor seinem Tod
TTITLE10=Ich bleib bei Dir
TTITLE11=Brannte nicht unser Herz
TTITLE12=Wir warten auf Dich Bonustrack
TTITLE13=Wir werden die Kraft
TTITLE14=Dankt dem Herrn
TTITLE15=Groﬂer Gott Bonustrack
TTITLE16=Daten-CD
EXTD=
EXTT0=
EXTT1=
EXTT2=
EXTT3=
EXTT4=
EXTT5=
EXTT6=
EXTT7=
EXTT8=
EXTT9=
EXTT10=
EXTT11=
EXTT12=
EXTT13=
EXTT14=
EXTT15=
EXTT16=
PLAYORDER=
